<svg width="657.9px" height="122px" xmlns="http://www.w3.org/2000/svg" viewBox="-78.94687499999998 14 657.89375 122" style="background: rgba(0, 0, 0, 0)" preserveAspectRatio="xMidYMid"><defs><linearGradient id="editing-gradient-gradient" x1="0" x2="1" y1="0.5" y2="0.5" gradientUnits="objectBoundingBox"><stop offset="0" stop-color="#77d1ed"></stop><stop offset="1" stop-color="#ea3bd9"></stop></linearGradient></defs><g><g transform="matrix(1.3,0,0,1.5,-53,175.5)"><path d="M 10.5 -51.3 L -3.4 -51.3 L 4.7 -93.6 L 18.8 -93.6 L 10.5 -51.3 Z M 66.3 -50.1 L 66.3 -50.1 L 66.3 -50.1 Q 58.5 -50.1 58.5 -56.1 L 58.5 -56.1 L 58.5 -56.1 Q 58.5 -58.7 59.6 -63.8 L 59.6 -63.8 L 59.6 -63.8 Q 60.8 -68.9 61.1 -70.9 L 61.1 -70.9 L 61.1 -70.9 Q 62 -75.6 62 -77.1 L 62 -77.1 L 62 -77.1 Q 62 -80.3 59.6 -80.3 L 59.6 -80.3 L 59.6 -80.3 Q 58 -80.3 56.5 -78.1 L 56.5 -78.1 L 56.5 -78.1 Q 54.9 -75.9 54.2 -71.5 L 54.2 -71.5 L 50.3 -51.3 L 37.8 -50.1 L 41.2 -67.5 L 41.2 -67.5 Q 41.8 -70.3 42.3 -73.6 L 42.3 -73.6 L 42.3 -73.6 Q 42.8 -76.9 42.8 -77.4 L 42.8 -77.4 L 42.8 -77.4 Q 42.8 -80.3 40.7 -80.3 L 40.7 -80.3 L 40.7 -80.3 Q 39.2 -80.3 37.6 -78.2 L 37.6 -78.2 L 37.6 -78.2 Q 36 -76 35.1 -71.5 L 35.1 -71.5 L 31.2 -51.3 L 18.6 -50.1 L 25.3 -84 L 35.7 -85.3 L 34.6 -78.8 L 34.6 -78.8 Q 36.3 -82.2 39.4 -83.8 L 39.4 -83.8 L 39.4 -83.8 Q 42.5 -85.3 47.3 -85.3 L 47.3 -85.3 L 47.3 -85.3 Q 50 -85.3 51.8 -83.9 L 51.8 -83.9 L 51.8 -83.9 Q 53.6 -82.6 54.2 -80.4 L 54.2 -80.4 L 54.2 -80.4 Q 55.3 -82.6 58 -83.9 L 58 -83.9 L 58 -83.9 Q 60.8 -85.3 64.2 -85.3 L 64.2 -85.3 L 64.2 -85.3 Q 67.7 -85.3 69.4 -84.5 L 69.4 -84.5 L 69.4 -84.5 Q 71.1 -83.8 72.1 -82.6 L 72.1 -82.6 L 72.1 -82.6 Q 73.8 -80.3 73.8 -76.2 L 73.8 -76.2 L 73.8 -76.2 Q 73.8 -72.2 72.1 -63.8 L 72.1 -63.8 L 72.1 -63.8 Q 71.2 -59.7 71.2 -58.2 L 71.2 -58.2 L 71.2 -58.2 Q 71.2 -56.7 72.1 -55.8 L 72.1 -55.8 L 72.1 -55.8 Q 72.9 -54.9 74.2 -54.8 L 74.2 -54.8 L 74.2 -54.8 Q 73.6 -52.6 71.4 -51.3 L 71.4 -51.3 L 71.4 -51.3 Q 69.1 -50.1 66.3 -50.1 Z M 81.9 -53.3 L 81.9 -53.3 L 81.9 -53.3 Q 80.4 -54.9 79.7 -57.5 L 79.7 -57.5 L 79.7 -57.5 Q 79.1 -60.2 79.1 -64.5 L 79.1 -64.5 L 79.1 -64.5 Q 79.1 -68.7 80.5 -72.6 L 80.5 -72.6 L 80.5 -72.6 Q 82 -76.6 84.7 -79.4 L 84.7 -79.4 L 84.7 -79.4 Q 90.2 -85.3 99.3 -85.3 L 99.3 -85.3 L 99.3 -85.3 Q 102.6 -85.3 104.9 -84.2 L 104.9 -84.2 L 115.9 -85.3 L 111.1 -60.3 L 111.1 -60.3 Q 110.9 -59.5 110.9 -58.1 L 110.9 -58.1 L 110.9 -58.1 Q 110.9 -56.7 111.8 -55.8 L 111.8 -55.8 L 111.8 -55.8 Q 112.7 -54.9 113.9 -54.8 L 113.9 -54.8 L 113.9 -54.8 Q 113.3 -52.6 111 -51.3 L 111 -51.3 L 111 -51.3 Q 108.6 -50.1 106 -50.1 L 106 -50.1 L 106 -50.1 Q 103.4 -50.1 101.6 -51 L 101.6 -51 L 101.6 -51 Q 99.9 -52 99.4 -53.7 L 99.4 -53.7 L 99.4 -53.7 Q 98.3 -52.1 96.2 -51.1 L 96.2 -51.1 L 96.2 -51.1 Q 94 -50.1 91.1 -50.1 L 91.1 -50.1 L 91.1 -50.1 Q 88.2 -50.1 85.8 -50.8 L 85.8 -50.8 L 85.8 -50.8 Q 83.4 -51.6 81.9 -53.3 Z M 95.4 -79.2 L 95.4 -79.2 L 95.4 -79.2 Q 94.7 -78.1 94 -76.1 L 94 -76.1 L 94 -76.1 Q 93.4 -74.2 92.3 -69 L 92.3 -69 L 92.3 -69 Q 91.3 -63.8 91.3 -60 L 91.3 -60 L 91.3 -60 Q 91.3 -56.3 91.9 -55.2 L 91.9 -55.2 L 91.9 -55.2 Q 92.4 -54.2 93.5 -54.2 L 93.5 -54.2 L 93.5 -54.2 Q 95.5 -54.2 97 -56.1 L 97 -56.1 L 97 -56.1 Q 98.5 -58.1 99.1 -61.5 L 99.1 -61.5 L 102.5 -80.3 L 102.5 -80.3 Q 101.1 -81.4 99.6 -81.4 L 99.6 -81.4 L 99.6 -81.4 Q 98 -81.4 97.1 -80.9 L 97.1 -80.9 L 97.1 -80.9 Q 96.2 -80.4 95.4 -79.2 Z M 123.6 -78.1 L 123.6 -78.1 L 123.6 -78.1 Q 125.8 -81.2 129.1 -83.2 L 129.1 -83.2 L 129.1 -83.2 Q 132.4 -85.3 136.4 -85.3 L 136.4 -85.3 L 136.4 -85.3 Q 140.4 -85.3 142.4 -84 L 142.4 -84 L 154.9 -85.3 L 150.6 -60.7 L 150.6 -60.7 Q 148.3 -48.1 143.6 -43.2 L 143.6 -43.2 L 143.6 -43.2 Q 139 -38.5 130.2 -38.5 L 130.2 -38.5 L 130.2 -38.5 Q 123.5 -38.5 119.6 -40.6 L 119.6 -40.6 L 119.6 -40.6 Q 115.8 -42.8 115.8 -46.3 L 115.8 -46.3 L 115.8 -46.3 Q 115.8 -48.9 117.8 -50.4 L 117.8 -50.4 L 117.8 -50.4 Q 119.8 -51.9 122.8 -51.9 L 122.8 -51.9 L 122.8 -51.9 Q 125.5 -51.9 127.6 -50.7 L 127.6 -50.7 L 127.6 -50.7 Q 128.8 -50.1 129.4 -49.2 L 129.4 -49.2 L 129.4 -49.2 Q 127.9 -47.9 127.9 -45.8 L 127.9 -45.8 L 127.9 -45.8 Q 127.9 -43 130.5 -43 L 130.5 -43 L 130.5 -43 Q 134.7 -43 137.2 -53.1 L 137.2 -53.1 L 137.2 -53.1 Q 137.9 -55.9 138.5 -58.6 L 138.5 -58.6 L 138.5 -58.6 Q 135.6 -55.1 129 -55.1 L 129 -55.1 L 129 -55.1 Q 124.5 -55.1 121.9 -57.3 L 121.9 -57.3 L 121.9 -57.3 Q 119.3 -59.5 119.3 -64.6 L 119.3 -64.6 L 119.3 -64.6 Q 119.3 -67.8 120.3 -71.4 L 120.3 -71.4 L 120.3 -71.4 Q 121.4 -75 123.6 -78.1 Z M 131.9 -64.4 L 131.9 -64.4 L 131.9 -64.4 Q 131.9 -60 134.2 -60 L 134.2 -60 L 134.2 -60 Q 135.7 -60 137.2 -61.7 L 137.2 -61.7 L 137.2 -61.7 Q 138.3 -63 138.8 -65 L 138.8 -65 L 142 -81.5 L 142 -81.5 Q 141.7 -81.5 141.4 -81.7 L 141.4 -81.7 L 141.4 -81.7 Q 140.8 -81.9 139.9 -81.9 L 139.9 -81.9 L 139.9 -81.9 Q 136 -81.9 133.7 -75.5 L 133.7 -75.5 L 133.7 -75.5 Q 131.9 -70.5 131.9 -64.4 Z M 183.3 -62.2 L 183.3 -62.2 L 183.3 -62.2 Q 184.9 -61.1 184.9 -58.7 L 184.9 -58.7 L 184.9 -58.7 Q 184.9 -56.3 183.7 -54.7 L 183.7 -54.7 L 183.7 -54.7 Q 182.5 -53.2 180.5 -52.2 L 180.5 -52.2 L 180.5 -52.2 Q 176.4 -50.1 172 -50.1 L 172 -50.1 L 172 -50.1 Q 167.6 -50.1 165 -51 L 165 -51 L 165 -51 Q 162.4 -52 160.7 -53.8 L 160.7 -53.8 L 160.7 -53.8 Q 157.3 -57.2 157.3 -63.4 L 157.3 -63.4 L 157.3 -63.4 Q 157.3 -73 162.5 -78.9 L 162.5 -78.9 L 162.5 -78.9 Q 168.2 -85.3 177.9 -85.3 L 177.9 -85.3 L 177.9 -85.3 Q 184 -85.3 187 -82.7 L 187 -82.7 L 187 -82.7 Q 189.3 -80.8 189.3 -77.6 L 189.3 -77.6 L 189.3 -77.6 Q 189.3 -66.4 169.8 -66.4 L 169.8 -66.4 L 169.8 -66.4 Q 169.6 -64.7 169.6 -63.3 L 169.6 -63.3 L 169.6 -63.3 Q 169.6 -60.4 170.9 -59.2 L 170.9 -59.2 L 170.9 -59.2 Q 172.2 -58.1 174.6 -58.1 L 174.6 -58.1 L 174.6 -58.1 Q 177 -58.1 179.6 -59.2 L 179.6 -59.2 L 179.6 -59.2 Q 182.2 -60.4 183.3 -62.2 Z M 170.3 -69.1 L 170.3 -69.1 L 170.3 -69.1 Q 174.8 -69.1 177.4 -71.9 L 177.4 -71.9 L 177.4 -71.9 Q 180.1 -74.6 180.1 -78.9 L 180.1 -78.9 L 180.1 -78.9 Q 180.1 -80.4 179.5 -81.2 L 179.5 -81.2 L 179.5 -81.2 Q 179 -82 177.9 -82 L 177.9 -82 L 177.9 -82 Q 176.8 -82 175.9 -81.6 L 175.9 -81.6 L 175.9 -81.6 Q 174.9 -81.2 174 -79.8 L 174 -79.8 L 174 -79.8 Q 171.6 -76.6 170.3 -69.1 Z M 210.6 -73.8 L 210.6 -73.8 L 210.6 -73.8 Q 211.5 -76.2 211.5 -78.2 L 211.5 -78.2 L 211.5 -78.2 Q 211.5 -82 208.4 -82 L 208.4 -82 L 208.4 -82 Q 206.8 -82 205.5 -80.6 L 205.5 -80.6 L 205.5 -80.6 Q 204.2 -79.1 204.2 -77.3 L 204.2 -77.3 L 204.2 -77.3 Q 204.2 -76 205.2 -75 L 205.2 -75 L 205.2 -75 Q 206.7 -73.6 210.5 -71.3 L 210.5 -71.3 L 210.5 -71.3 Q 214.2 -69 215.7 -67.1 L 215.7 -67.1 L 215.7 -67.1 Q 217.1 -65.2 217.1 -62.6 L 217.1 -62.6 L 217.1 -62.6 Q 217.1 -60 215.9 -57.7 L 215.9 -57.7 L 215.9 -57.7 Q 214.6 -55.3 212.4 -53.6 L 212.4 -53.6 L 212.4 -53.6 Q 207.6 -50.1 199.9 -50.1 L 199.9 -50.1 L 199.9 -50.1 Q 195.7 -50.1 192.5 -52.2 L 192.5 -52.2 L 192.5 -52.2 Q 189.3 -54.3 189.3 -56.8 L 189.3 -56.8 L 189.3 -56.8 Q 189.3 -59.3 191.2 -60.8 L 191.2 -60.8 L 191.2 -60.8 Q 193 -62.3 195.7 -62.3 L 195.7 -62.3 L 195.7 -62.3 Q 198.4 -62.3 200 -61.3 L 200 -61.3 L 200 -61.3 Q 199.2 -59.1 199.2 -57.7 L 199.2 -57.7 L 199.2 -57.7 Q 199.2 -53.5 202.8 -53.5 L 202.8 -53.5 L 202.8 -53.5 Q 204.3 -53.5 205.3 -54.5 L 205.3 -54.5 L 205.3 -54.5 Q 206.4 -55.4 206.4 -57.1 L 206.4 -57.1 L 206.4 -57.1 Q 206.4 -60.4 200.9 -63.8 L 200.9 -63.8 L 200.9 -63.8 Q 196.4 -66.8 195.4 -67.9 L 195.4 -67.9 L 195.4 -67.9 Q 193.6 -70 193.6 -72.5 L 193.6 -72.5 L 193.6 -72.5 Q 193.6 -75.1 194.8 -77.5 L 194.8 -77.5 L 194.8 -77.5 Q 196.1 -79.9 198.3 -81.7 L 198.3 -81.7 L 198.3 -81.7 Q 203 -85.3 211.1 -85.3 L 211.1 -85.3 L 211.1 -85.3 Q 215.3 -85.3 217.7 -83.6 L 217.7 -83.6 L 217.7 -83.6 Q 220.2 -81.9 220.2 -79.1 L 220.2 -79.1 L 220.2 -79.1 Q 220.2 -76.3 218.5 -74.7 L 218.5 -74.7 L 218.5 -74.7 Q 216.8 -73.1 213.7 -73.1 L 213.7 -73.1 L 213.7 -73.1 Q 211.6 -73.1 210.6 -73.8 Z M 261.7 -71.9 L 274.6 -73.1 L 274.6 -73.1 Q 270 -63 270 -51.3 L 270 -51.3 L 270 -51.3 Q 268.2 -50.1 265.7 -50.1 L 265.7 -50.1 L 265.7 -50.1 Q 263.2 -50.1 261.6 -51.2 L 261.6 -51.2 L 261.6 -51.2 Q 260 -52.4 259.7 -53.6 L 259.7 -53.6 L 259.7 -53.6 Q 258.1 -52 255.5 -51 L 255.5 -51 L 255.5 -51 Q 252.9 -50.1 250.1 -50.1 L 250.1 -50.1 L 250.1 -50.1 Q 247.4 -50.1 245 -51 L 245 -51 L 245 -51 Q 242.6 -51.8 240.7 -53.8 L 240.7 -53.8 L 240.7 -53.8 Q 236.6 -58.2 236.6 -66.4 L 236.6 -66.4 L 236.6 -66.4 Q 236.6 -79.2 243.5 -86.9 L 243.5 -86.9 L 243.5 -86.9 Q 250.5 -94.9 263 -94.9 L 263 -94.9 L 263 -94.9 Q 271.6 -94.9 274.7 -90.4 L 274.7 -90.4 L 274.7 -90.4 Q 275.7 -89 275.7 -87.3 L 275.7 -87.3 L 275.7 -87.3 Q 275.7 -85.6 274.9 -84.1 L 274.9 -84.1 L 274.9 -84.1 Q 274.2 -82.7 273 -81.5 L 273 -81.5 L 273 -81.5 Q 270.3 -79 266.9 -79 L 266.9 -79 L 266.9 -79 Q 265.6 -79 264.3 -79.4 L 264.3 -79.4 L 264.3 -79.4 Q 264.5 -81.4 264.5 -83.6 L 264.5 -83.6 L 264.5 -83.6 Q 264.5 -85.8 264.4 -86.9 L 264.4 -86.9 L 264.4 -86.9 Q 264.2 -87.9 263.8 -88.7 L 263.8 -88.7 L 263.8 -88.7 Q 263 -90.4 261.2 -90.4 L 261.2 -90.4 L 261.2 -90.4 Q 259.4 -90.4 257.3 -88.5 L 257.3 -88.5 L 257.3 -88.5 Q 255.3 -86.5 253.7 -83.3 L 253.7 -83.3 L 253.7 -83.3 Q 250.2 -76.2 250.2 -67.5 L 250.2 -67.5 L 250.2 -67.5 Q 250.2 -63.6 251.7 -60.7 L 251.7 -60.7 L 251.7 -60.7 Q 253.4 -57.7 256.3 -57.7 L 256.3 -57.7 L 256.3 -57.7 Q 257.4 -57.7 258.3 -58.2 L 258.3 -58.2 L 258.3 -58.2 Q 259.2 -58.7 259.6 -59.1 L 259.6 -59.1 L 261.7 -71.9 Z M 280.5 -53.3 L 280.5 -53.3 L 280.5 -53.3 Q 279 -54.9 278.3 -57.5 L 278.3 -57.5 L 278.3 -57.5 Q 277.7 -60.2 277.7 -64.5 L 277.7 -64.5 L 277.7 -64.5 Q 277.7 -68.7 279.1 -72.6 L 279.1 -72.6 L 279.1 -72.6 Q 280.6 -76.6 283.3 -79.4 L 283.3 -79.4 L 283.3 -79.4 Q 288.8 -85.3 297.9 -85.3 L 297.9 -85.3 L 297.9 -85.3 Q 301.1 -85.3 303.5 -84.2 L 303.5 -84.2 L 314.5 -85.3 L 309.7 -60.3 L 309.7 -60.3 Q 309.5 -59.5 309.5 -58.1 L 309.5 -58.1 L 309.5 -58.1 Q 309.5 -56.7 310.4 -55.8 L 310.4 -55.8 L 310.4 -55.8 Q 311.3 -54.9 312.5 -54.8 L 312.5 -54.8 L 312.5 -54.8 Q 311.9 -52.6 309.6 -51.3 L 309.6 -51.3 L 309.6 -51.3 Q 307.2 -50.1 304.6 -50.1 L 304.6 -50.1 L 304.6 -50.1 Q 302 -50.1 300.2 -51 L 300.2 -51 L 300.2 -51 Q 298.5 -52 297.9 -53.7 L 297.9 -53.7 L 297.9 -53.7 Q 296.9 -52.1 294.7 -51.1 L 294.7 -51.1 L 294.7 -51.1 Q 292.6 -50.1 289.7 -50.1 L 289.7 -50.1 L 289.7 -50.1 Q 286.7 -50.1 284.4 -50.8 L 284.4 -50.8 L 284.4 -50.8 Q 282 -51.6 280.5 -53.3 Z M 294 -79.2 L 294 -79.2 L 294 -79.2 Q 293.3 -78.1 292.6 -76.1 L 292.6 -76.1 L 292.6 -76.1 Q 292 -74.2 290.9 -69 L 290.9 -69 L 290.9 -69 Q 289.9 -63.8 289.9 -60 L 289.9 -60 L 289.9 -60 Q 289.9 -56.3 290.5 -55.2 L 290.5 -55.2 L 290.5 -55.2 Q 291 -54.2 292.1 -54.2 L 292.1 -54.2 L 292.1 -54.2 Q 294.1 -54.2 295.6 -56.1 L 295.6 -56.1 L 295.6 -56.1 Q 297.1 -58.1 297.7 -61.5 L 297.7 -61.5 L 301.1 -80.3 L 301.1 -80.3 Q 299.7 -81.4 298.2 -81.4 L 298.2 -81.4 L 298.2 -81.4 Q 296.6 -81.4 295.7 -80.9 L 295.7 -80.9 L 295.7 -80.9 Q 294.7 -80.4 294 -79.2 Z M 333.2 -54.9 L 333.2 -54.9 L 333.2 -54.9 Q 331.2 -50.1 324.9 -50.1 L 324.9 -50.1 L 324.9 -50.1 Q 321.7 -50.1 319.6 -52.3 L 319.6 -52.3 L 319.6 -52.3 Q 318 -54.2 318 -56.3 L 318 -56.3 L 318 -56.3 Q 318 -61.1 320.2 -71.6 L 320.2 -71.6 L 324.9 -96.1 L 337.9 -97.4 L 331.7 -65 L 331.7 -65 Q 330.6 -60.3 330.6 -58.6 L 330.6 -58.6 L 330.6 -58.6 Q 330.6 -55 333.2 -54.9 Z M 353.9 -54.9 L 353.9 -54.9 L 353.9 -54.9 Q 352 -50.1 345.6 -50.1 L 345.6 -50.1 L 345.6 -50.1 Q 342.4 -50.1 340.4 -52.3 L 340.4 -52.3 L 340.4 -52.3 Q 338.7 -54.2 338.7 -56.3 L 338.7 -56.3 L 338.7 -56.3 Q 338.7 -61.1 341 -71.6 L 341 -71.6 L 345.6 -96.1 L 358.6 -97.4 L 352.4 -65 L 352.4 -65 Q 351.3 -60.3 351.3 -58.6 L 351.3 -58.6 L 351.3 -58.6 Q 351.3 -55 353.9 -54.9 Z M 385.3 -62.2 L 385.3 -62.2 L 385.3 -62.2 Q 386.9 -61.1 386.9 -58.7 L 386.9 -58.7 L 386.9 -58.7 Q 386.9 -56.3 385.7 -54.7 L 385.7 -54.7 L 385.7 -54.7 Q 384.5 -53.2 382.5 -52.2 L 382.5 -52.2 L 382.5 -52.2 Q 378.4 -50.1 374 -50.1 L 374 -50.1 L 374 -50.1 Q 369.6 -50.1 367 -51 L 367 -51 L 367 -51 Q 364.4 -52 362.6 -53.8 L 362.6 -53.8 L 362.6 -53.8 Q 359.3 -57.2 359.3 -63.4 L 359.3 -63.4 L 359.3 -63.4 Q 359.3 -73 364.5 -78.9 L 364.5 -78.9 L 364.5 -78.9 Q 370.1 -85.3 379.9 -85.3 L 379.9 -85.3 L 379.9 -85.3 Q 386 -85.3 389 -82.7 L 389 -82.7 L 389 -82.7 Q 391.3 -80.8 391.3 -77.6 L 391.3 -77.6 L 391.3 -77.6 Q 391.3 -66.4 371.8 -66.4 L 371.8 -66.4 L 371.8 -66.4 Q 371.5 -64.7 371.5 -63.3 L 371.5 -63.3 L 371.5 -63.3 Q 371.5 -60.4 372.9 -59.2 L 372.9 -59.2 L 372.9 -59.2 Q 374.2 -58.1 376.6 -58.1 L 376.6 -58.1 L 376.6 -58.1 Q 379 -58.1 381.6 -59.2 L 381.6 -59.2 L 381.6 -59.2 Q 384.2 -60.4 385.3 -62.2 Z M 372.2 -69.1 L 372.2 -69.1 L 372.2 -69.1 Q 376.8 -69.1 379.4 -71.9 L 379.4 -71.9 L 379.4 -71.9 Q 382 -74.6 382 -78.9 L 382 -78.9 L 382 -78.9 Q 382 -80.4 381.5 -81.2 L 381.5 -81.2 L 381.5 -81.2 Q 381 -82 379.9 -82 L 379.9 -82 L 379.9 -82 Q 378.8 -82 377.8 -81.6 L 377.8 -81.6 L 377.8 -81.6 Q 376.9 -81.2 376 -79.8 L 376 -79.8 L 376 -79.8 Q 373.6 -76.6 372.2 -69.1 Z M 413.5 -69.3 L 413.5 -69.3 L 413.5 -69.3 Q 415.8 -73.4 415.8 -77.6 L 415.8 -77.6 L 415.8 -77.6 Q 415.8 -80.3 413.8 -80.3 L 413.8 -80.3 L 413.8 -80.3 Q 412.2 -80.3 410.6 -77.7 L 410.6 -77.7 L 410.6 -77.7 Q 409 -75.1 408.5 -71.7 L 408.5 -71.7 L 405.1 -51.3 L 391.9 -50.1 L 398.4 -84 L 409 -85.3 L 407.8 -78.8 L 407.8 -78.8 Q 411 -85.3 418 -85.3 L 418 -85.3 L 418 -85.3 Q 421.7 -85.3 423.7 -83.3 L 423.7 -83.3 L 423.7 -83.3 Q 425.8 -81.4 425.8 -77.5 L 425.8 -77.5 L 425.8 -77.5 Q 425.8 -73.5 423.2 -71 L 423.2 -71 L 423.2 -71 Q 420.6 -68.6 416.2 -68.6 L 416.2 -68.6 L 416.2 -68.6 Q 414.2 -68.6 413.5 -69.3 Z M 447.1 -58.6 L 447.1 -58.6 L 447.1 -58.6 Q 443.8 -55.1 437.7 -55.1 L 437.7 -55.1 L 437.7 -55.1 Q 430.1 -55.1 428.5 -60.7 L 428.5 -60.7 L 428.5 -60.7 Q 428 -62.3 428 -64.2 L 428 -64.2 L 428 -64.2 Q 428 -66.1 428.4 -68 L 428.4 -68 L 431.4 -84 L 444.4 -85.3 L 440.9 -66.6 L 440.9 -66.6 Q 440.7 -65.8 440.5 -64.9 L 440.5 -64.9 L 440.5 -64.9 Q 440.3 -64 440.3 -63.1 L 440.3 -63.1 L 440.3 -63.1 Q 440.3 -62.2 440.7 -61.5 L 440.7 -61.5 L 440.7 -61.5 Q 441 -60.9 441.4 -60.6 L 441.4 -60.6 L 441.4 -60.6 Q 442.2 -60 443.6 -60 L 443.6 -60 L 443.6 -60 Q 445 -60 446.1 -61.7 L 446.1 -61.7 L 446.1 -61.7 Q 447.3 -63.4 447.9 -66.2 L 447.9 -66.2 L 451.4 -84 L 464 -85.3 L 459.2 -60.1 L 459.2 -60.1 Q 456.9 -47.8 452 -43 L 452 -43 L 452 -43 Q 449.5 -40.5 446.3 -39.5 L 446.3 -39.5 L 446.3 -39.5 Q 443 -38.5 438.9 -38.5 L 438.9 -38.5 L 438.9 -38.5 Q 432.2 -38.5 428.3 -40.6 L 428.3 -40.6 L 428.3 -40.6 Q 424.5 -42.7 424.5 -46.2 L 424.5 -46.2 L 424.5 -46.2 Q 424.5 -48.8 426.5 -50.3 L 426.5 -50.3 L 426.5 -50.3 Q 428.4 -51.8 431.5 -51.8 L 431.5 -51.8 L 431.5 -51.8 Q 434.2 -51.8 436.2 -50.7 L 436.2 -50.7 L 436.2 -50.7 Q 437.5 -50 438 -49.1 L 438 -49.1 L 438 -49.1 Q 436.6 -47.8 436.6 -45.7 L 436.6 -45.7 L 436.6 -45.7 Q 436.6 -42.9 439.1 -42.9 L 439.1 -42.9 L 439.1 -42.9 Q 443.4 -42.9 445.8 -52.6 L 445.8 -52.6 L 445.8 -52.6 Q 446.5 -55.5 447.1 -58.6 Z" fill="url(#editing-gradient-gradient)"></path></g></g><style>text {
  font-size: 64px;
  font-family: Arial Black;
  dominant-baseline: central;
  text-anchor: middle;
}</style></svg>